<svg width="488" height="406" viewBox="0 0 488 406" fill="none" xmlns="http://www.w3.org/2000/svg">
<g clip-path="url(#clip0)">
<g opacity="0.8">
<path opacity="0.8" d="M488 0H256.397V258.534H488V0Z" fill="url(#paint0_linear)"/>
</g>
<path d="M484.168 172.614H260.223V252.904H484.168V172.614Z" fill="white"/>
<path d="M287.283 191.657H278.605V232.8H287.283V191.657Z" fill="#64FFDA"/>
<g opacity="0.7">
<path opacity="0.7" d="M304.414 191.657H295.736V232.8H304.414V191.657Z" fill="#64FFDA"/>
</g>
<g opacity="0.6">
<path opacity="0.6" d="M321.55 191.657H312.872V232.8H321.55V191.657Z" fill="#64FFDA"/>
</g>
<g opacity="0.5">
<path opacity="0.5" d="M338.681 191.657H330.003V232.8H338.681V191.657Z" fill="#64FFDA"/>
</g>
<g opacity="0.5">
<path opacity="0.5" d="M355.812 191.657H347.134V232.8H355.812V191.657Z" fill="#64FFDA"/>
</g>
<g opacity="0.4">
<path opacity="0.4" d="M372.942 191.657H364.264V232.8H372.942V191.657Z" fill="#64FFDA"/>
</g>
<g opacity="0.3">
<path opacity="0.3" d="M390.079 191.657H381.401V232.8H390.079V191.657Z" fill="#64FFDA"/>
</g>
<path d="M452.465 232.907C464.03 232.907 473.405 223.531 473.405 211.964C473.405 200.397 464.03 191.021 452.465 191.021C440.9 191.021 431.525 200.397 431.525 211.964C431.525 223.531 440.9 232.907 452.465 232.907Z" fill="#FAB431"/>
<path d="M484.168 89.1953H260.223V169.486H484.168V89.1953Z" fill="white"/>
<path d="M287.283 108.239H278.605V149.382H287.283V108.239Z" fill="#64FFDA"/>
<g opacity="0.7">
<path opacity="0.7" d="M304.414 108.239H295.736V149.382H304.414V108.239Z" fill="#64FFDA"/>
</g>
<g opacity="0.6">
<path opacity="0.6" d="M321.55 108.239H312.872V149.382H321.55V108.239Z" fill="#64FFDA"/>
</g>
<g opacity="0.5">
<path opacity="0.5" d="M338.681 108.239H330.003V149.382H338.681V108.239Z" fill="#64FFDA"/>
</g>
<g opacity="0.5">
<path opacity="0.5" d="M355.812 108.239H347.134V149.382H355.812V108.239Z" fill="#64FFDA"/>
</g>
<g opacity="0.4">
<path opacity="0.4" d="M372.942 108.239H364.264V149.382H372.942V108.239Z" fill="#64FFDA"/>
</g>
<g opacity="0.3">
<path opacity="0.3" d="M390.079 108.239H381.401V149.382H390.079V108.239Z" fill="#64FFDA"/>
</g>
<path d="M452.465 149.495C464.03 149.495 473.405 140.118 473.405 128.551C473.405 116.985 464.03 107.608 452.465 107.608C440.9 107.608 431.525 116.985 431.525 128.551C431.525 140.118 440.9 149.495 452.465 149.495Z" fill="#FAB431"/>
<path d="M484.168 5.77686H260.223V86.0672H484.168V5.77686Z" fill="white"/>
<path d="M287.283 24.8264H278.605V65.9692H287.283V24.8264Z" fill="#64FFDA"/>
<g opacity="0.7">
<path opacity="0.7" d="M304.414 24.8264H295.736V65.9692H304.414V24.8264Z" fill="#64FFDA"/>
</g>
<g opacity="0.6">
<path opacity="0.6" d="M321.55 24.8264H312.872V65.9692H321.55V24.8264Z" fill="#64FFDA"/>
</g>
<g opacity="0.5">
<path opacity="0.5" d="M338.681 24.8264H330.003V65.9692H338.681V24.8264Z" fill="#64FFDA"/>
</g>
<g opacity="0.5">
<path opacity="0.5" d="M355.812 24.8264H347.134V65.9692H355.812V24.8264Z" fill="#64FFDA"/>
</g>
<g opacity="0.4">
<path opacity="0.4" d="M372.942 24.8264H364.264V65.9692H372.942V24.8264Z" fill="#64FFDA"/>
</g>
<g opacity="0.3">
<path opacity="0.3" d="M390.079 24.8264H381.401V65.9692H390.079V24.8264Z" fill="#64FFDA"/>
</g>
<path d="M452.465 67.7107C464.933 67.7107 475.039 57.6023 475.039 45.133C475.039 32.6636 464.933 22.5552 452.465 22.5552C439.998 22.5552 429.891 32.6636 429.891 45.133C429.891 57.6023 439.998 67.7107 452.465 67.7107Z" fill="url(#paint1_linear)"/>
<path d="M452.465 151.687C464.933 151.687 475.039 141.579 475.039 129.109C475.039 116.64 464.933 106.531 452.465 106.531C439.998 106.531 429.891 116.64 429.891 129.109C429.891 141.579 439.998 151.687 452.465 151.687Z" fill="url(#paint2_linear)"/>
<path d="M452.465 235.1C464.933 235.1 475.039 224.991 475.039 212.522C475.039 200.053 464.933 189.944 452.465 189.944C439.998 189.944 429.891 200.053 429.891 212.522C429.891 224.991 439.998 235.1 452.465 235.1Z" fill="url(#paint3_linear)"/>
<path d="M452.465 66.0764C464.03 66.0764 473.405 56.6997 473.405 45.133C473.405 33.5664 464.03 24.1897 452.465 24.1897C440.9 24.1897 431.525 33.5664 431.525 45.133C431.525 56.6997 440.9 66.0764 452.465 66.0764Z" fill="#FAB431"/>
<g opacity="0.8">
<path opacity="0.8" d="M328.6 391.91H18.6353V193.985C18.6353 192.816 18.8656 191.658 19.313 190.577C19.7605 189.497 20.4163 188.515 21.2431 187.688C22.0698 186.862 23.0514 186.206 24.1316 185.758C25.2118 185.311 26.3696 185.08 27.5388 185.08H319.691C320.86 185.08 322.018 185.311 323.098 185.758C324.178 186.206 325.16 186.862 325.986 187.688C326.813 188.515 327.469 189.497 327.916 190.577C328.364 191.658 328.594 192.816 328.594 193.985L328.6 391.91Z" fill="url(#paint4_linear)"/>
</g>
<path d="M31.8101 188.721H315.425C317.786 188.721 320.051 189.659 321.721 191.329C323.39 192.999 324.328 195.264 324.328 197.626V391.91H22.9067V197.626C22.9067 195.264 23.8447 192.999 25.5144 191.329C27.1842 189.659 29.4488 188.721 31.8101 188.721Z" fill="white"/>
<path d="M314.625 200.54H32.6104V385.541H314.625V200.54Z" fill="#F5F5F5"/>
<path opacity="0.8" d="M314.512 209.524H33.6923V375.966H314.512V209.524Z" fill="#E0E0E0"/>
<path d="M314.512 200.681H33.6923V209.524H314.512V200.681Z" fill="#F5F5F5"/>
<path d="M39.7106 207.106C40.8932 207.106 41.8519 206.147 41.8519 204.964C41.8519 203.781 40.8932 202.823 39.7106 202.823C38.5279 202.823 37.5692 203.781 37.5692 204.964C37.5692 206.147 38.5279 207.106 39.7106 207.106Z" fill="#FF5252"/>
<path d="M45.6049 207.106C46.7875 207.106 47.7462 206.147 47.7462 204.964C47.7462 203.781 46.7875 202.823 45.6049 202.823C44.4223 202.823 43.4636 203.781 43.4636 204.964C43.4636 206.147 44.4223 207.106 45.6049 207.106Z" fill="#FFFF00"/>
<path d="M51.5049 207.106C52.6875 207.106 53.6462 206.147 53.6462 204.964C53.6462 203.781 52.6875 202.823 51.5049 202.823C50.3222 202.823 49.3635 203.781 49.3635 204.964C49.3635 206.147 50.3222 207.106 51.5049 207.106Z" fill="#69F0AE"/>
<g opacity="0.8">
<path opacity="0.8" d="M337.272 405.205C320.018 406.513 23.7012 405.989 13.3439 405.205C-0.231037 398.662 6.23337e-06 373.278 6.23337e-06 373.278L135.891 372.37L136.347 380.097H194.524L196.778 373.278H347.393C347.393 373.278 350.385 396.571 337.272 405.205Z" fill="url(#paint5_linear)"/>
</g>
<path d="M345.184 375.323H197.51C198.091 375.978 198.469 376.787 198.598 377.652C198.727 378.518 198.601 379.402 198.236 380.198C197.871 380.993 197.283 381.665 196.542 382.131C195.802 382.598 194.942 382.839 194.067 382.825H137.716C136.841 382.839 135.982 382.598 135.241 382.131C134.501 381.665 133.913 380.993 133.548 380.198C133.183 379.402 133.057 378.518 133.186 377.652C133.314 376.787 133.692 375.978 134.273 375.323H2.04553C2.04553 375.323 1.82012 397.371 15.226 403.052C25.4537 403.734 318.147 404.18 335.187 403.052C348.142 395.551 345.184 375.323 345.184 375.323Z" fill="#F5F5F5"/>
<path d="M32.723 381.912C33.7283 381.912 34.5432 381.097 34.5432 380.091C34.5432 379.086 33.7283 378.271 32.723 378.271C31.7178 378.271 30.9029 379.086 30.9029 380.091C30.9029 381.097 31.7178 381.912 32.723 381.912Z" fill="#E0E0E0"/>
<path d="M38.1778 381.912C39.183 381.912 39.9979 381.097 39.9979 380.091C39.9979 379.086 39.183 378.271 38.1778 378.271C37.1726 378.271 36.3577 379.086 36.3577 380.091C36.3577 381.097 37.1726 381.912 38.1778 381.912Z" fill="#E0E0E0"/>
<path d="M43.6326 381.912C44.6378 381.912 45.4527 381.097 45.4527 380.091C45.4527 379.086 44.6378 378.271 43.6326 378.271C42.6273 378.271 41.8124 379.086 41.8124 380.091C41.8124 381.097 42.6273 381.912 43.6326 381.912Z" fill="#E0E0E0"/>
<g opacity="0.7">
<path opacity="0.7" d="M164.855 216.067L110.161 249.731C110.161 249.731 110.161 319.166 164.855 357.034C219.549 319.16 219.549 249.731 219.549 249.731L164.855 216.067Z" fill="url(#paint6_linear)"/>
</g>
<path d="M164.855 220.041L113.266 251.811C113.266 251.811 113.266 317.335 164.883 353.072C216.501 317.335 216.501 251.811 216.501 251.811L164.855 220.041Z" fill="#FAB431"/>
<path opacity="0.05" d="M165.734 220.041L164.849 220.604V352.486L165.734 353.106C217.352 317.369 217.352 251.844 217.352 251.844L165.734 220.041Z" fill="black"/>
<path d="M164.855 227.717L119.211 255.818C119.211 255.818 119.211 313.778 164.855 345.396C210.499 313.778 210.499 255.818 210.499 255.818L164.855 227.717Z" fill="#FAB431"/>
<path opacity="0.08" d="M164.855 227.937V345.594C210.499 313.976 210.499 256.015 210.499 256.015L164.855 227.937Z" fill="black"/>
<path d="M134.679 172.676V56.0105H231.039" stroke="#3AD29F" stroke-width="2" stroke-miterlimit="10" stroke-dasharray="12 12"/>
<path d="M104.813 137.169V20.5039H201.173" stroke="#3AD29F" stroke-width="2" stroke-miterlimit="10" stroke-dasharray="12 12"/>
<path d="M403.474 269.051V360.354H352.758" stroke="#3AD29F" stroke-width="2" stroke-miterlimit="10" stroke-dasharray="12 12"/>
<path d="M433.903 289.341V380.644H383.187" stroke="#3AD29F" stroke-width="2" stroke-miterlimit="10" stroke-dasharray="12 12"/>
</g>
<defs>
<linearGradient id="paint0_linear" x1="372.199" y1="258.534" x2="372.199" y2="0" gradientUnits="userSpaceOnUse">
<stop stop-color="#808080" stop-opacity="0.25"/>
<stop offset="0.54" stop-color="#808080" stop-opacity="0.12"/>
<stop offset="1" stop-color="#808080" stop-opacity="0.1"/>
</linearGradient>
<linearGradient id="paint1_linear" x1="36681.4" y1="5447.55" x2="36681.4" y2="1829.68" gradientUnits="userSpaceOnUse">
<stop stop-color="#808080" stop-opacity="0.25"/>
<stop offset="0.54" stop-color="#808080" stop-opacity="0.12"/>
<stop offset="1" stop-color="#808080" stop-opacity="0.1"/>
</linearGradient>
<linearGradient id="paint2_linear" x1="36681.4" y1="12259.7" x2="36681.4" y2="8641.84" gradientUnits="userSpaceOnUse">
<stop stop-color="#808080" stop-opacity="0.25"/>
<stop offset="0.54" stop-color="#808080" stop-opacity="0.12"/>
<stop offset="1" stop-color="#808080" stop-opacity="0.1"/>
</linearGradient>
<linearGradient id="paint3_linear" x1="36681.4" y1="19026.1" x2="36681.4" y2="15408.3" gradientUnits="userSpaceOnUse">
<stop stop-color="#808080" stop-opacity="0.25"/>
<stop offset="0.54" stop-color="#808080" stop-opacity="0.12"/>
<stop offset="1" stop-color="#808080" stop-opacity="0.1"/>
</linearGradient>
<linearGradient id="paint4_linear" x1="147283" y1="162584" x2="147283" y2="86683.3" gradientUnits="userSpaceOnUse">
<stop stop-color="#808080" stop-opacity="0.25"/>
<stop offset="0.54" stop-color="#808080" stop-opacity="0.12"/>
<stop offset="1" stop-color="#808080" stop-opacity="0.1"/>
</linearGradient>
<linearGradient id="paint5_linear" x1="165325" y1="27620.2" x2="165325" y2="25612.7" gradientUnits="userSpaceOnUse">
<stop stop-color="#808080" stop-opacity="0.25"/>
<stop offset="0.54" stop-color="#808080" stop-opacity="0.12"/>
<stop offset="1" stop-color="#808080" stop-opacity="0.1"/>
</linearGradient>
<linearGradient id="paint6_linear" x1="50379.7" y1="102179" x2="50379.7" y2="66919" gradientUnits="userSpaceOnUse">
<stop stop-color="#808080" stop-opacity="0.25"/>
<stop offset="0.54" stop-color="#808080" stop-opacity="0.12"/>
<stop offset="1" stop-color="#808080" stop-opacity="0.1"/>
</linearGradient>
<clipPath id="clip0">
<rect width="488" height="406" fill="white"/>
</clipPath>
</defs>
</svg>
