<svg width="588" height="338" viewBox="0 0 588 338" fill="none" xmlns="http://www.w3.org/2000/svg">
<g clip-path="url(#clip0)">
<path d="M127.403 300.027C144.292 300.027 157.983 286.33 157.983 269.434C157.983 252.539 144.292 238.842 127.403 238.842C110.515 238.842 96.824 252.539 96.824 269.434C96.824 286.33 110.515 300.027 127.403 300.027Z" fill="#F2F2F2"/>
<path d="M132.376 295.55C149.264 295.55 162.955 281.853 162.955 264.957C162.955 248.062 149.264 234.365 132.376 234.365C115.487 234.365 101.796 248.062 101.796 264.957C101.796 281.853 115.487 295.55 132.376 295.55Z" fill="#FAB431"/>
<path d="M535.351 231.107H157.003V232.14H535.351V231.107Z" fill="#3F3D56"/>
<path d="M352.95 9.63184H218.659V6.86279H157.767V9.63184H22.9229C21.73 9.63184 20.5488 9.8669 19.4467 10.3236C18.3447 10.7803 17.3433 11.4497 16.4998 12.2936C15.6563 13.1374 14.9872 14.1393 14.5307 15.2418C14.0742 16.3444 13.8392 17.5261 13.8392 18.7196V202.685C13.8392 205.095 14.7962 207.407 16.4998 209.111C18.2033 210.815 20.5138 211.773 22.9229 211.773H352.95C355.359 211.773 357.67 210.815 359.373 209.111C361.077 207.407 362.034 205.095 362.034 202.685V18.7196C362.034 17.5261 361.799 16.3444 361.342 15.2418C360.886 14.1393 360.217 13.1374 359.373 12.2936C358.53 11.4497 357.528 10.7803 356.426 10.3236C355.324 9.8669 354.143 9.63184 352.95 9.63184Z" fill="#3F3D56"/>
<path d="M349.855 25.6924H26.0177V208.45H349.855V25.6924Z" fill="#FAB431"/>
<path d="M187.66 20.708C189.494 20.708 190.981 19.2203 190.981 17.3851C190.981 15.55 189.494 14.0623 187.66 14.0623C185.825 14.0623 184.338 15.55 184.338 17.3851C184.338 19.2203 185.825 20.708 187.66 20.708Z" fill="#FAB431"/>
<path opacity="0.1" d="M257.243 208.45H26.0178V25.6926L257.243 208.45Z" fill="black"/>
<path d="M76.6885 194.774C93.8802 194.774 107.817 180.831 107.817 163.632C107.817 146.433 93.8802 132.49 76.6885 132.49C59.4969 132.49 45.5603 146.433 45.5603 163.632C45.5603 180.831 59.4969 194.774 76.6885 194.774Z" fill="#F2F2F2"/>
<path d="M293.47 124.255H263.22V130.579H293.47V124.255Z" fill="#3F3D56"/>
<path d="M330.04 75.0208H226.649V77.7309H330.04V75.0208Z" fill="#3F3D56"/>
<path d="M330.04 83.6028H226.649V86.3129H330.04V83.6028Z" fill="#3F3D56"/>
<path d="M330.04 92.1848H226.649V94.8949H330.04V92.1848Z" fill="#3F3D56"/>
<path d="M330.04 100.767H226.649V103.477H330.04V100.767Z" fill="#3F3D56"/>
<path d="M330.04 109.349H226.649V112.059H330.04V109.349Z" fill="#3F3D56"/>
<path d="M330.04 29.4001H317.399V42.0474H330.04V29.4001Z" fill="#F2F2F2"/>
<path d="M335.91 47.9195H320.559V32.562H335.91V47.9195ZM321.227 47.2518H335.242V33.2298H321.227V47.2518Z" fill="#3F3D56"/>
<path d="M371.126 205.127H339.522V202.849C339.522 202.789 339.51 202.731 339.487 202.676C339.465 202.621 339.431 202.571 339.39 202.529C339.348 202.487 339.298 202.454 339.243 202.431C339.188 202.409 339.13 202.397 339.07 202.397H328.234C328.175 202.397 328.117 202.409 328.062 202.431C328.007 202.454 327.957 202.487 327.915 202.529C327.873 202.571 327.84 202.621 327.817 202.676C327.795 202.731 327.783 202.789 327.783 202.849V205.127H321.011V202.849C321.011 202.789 320.999 202.731 320.976 202.676C320.954 202.621 320.92 202.571 320.878 202.529C320.836 202.487 320.787 202.454 320.732 202.431C320.677 202.409 320.618 202.397 320.559 202.397H309.723C309.664 202.397 309.605 202.409 309.551 202.431C309.496 202.454 309.446 202.487 309.404 202.529C309.362 202.571 309.329 202.621 309.306 202.676C309.284 202.731 309.272 202.789 309.272 202.849V205.127H302.499V202.849C302.499 202.789 302.488 202.731 302.465 202.676C302.442 202.621 302.409 202.571 302.367 202.529C302.325 202.487 302.276 202.454 302.221 202.431C302.166 202.409 302.107 202.397 302.048 202.397H291.212C291.153 202.397 291.094 202.409 291.039 202.431C290.985 202.454 290.935 202.487 290.893 202.529C290.851 202.571 290.818 202.621 290.795 202.676C290.772 202.731 290.761 202.789 290.761 202.849V205.127H283.988V202.849C283.988 202.789 283.977 202.731 283.954 202.676C283.931 202.621 283.898 202.571 283.856 202.529C283.814 202.487 283.764 202.454 283.71 202.431C283.655 202.409 283.596 202.397 283.537 202.397H272.701C272.642 202.397 272.583 202.409 272.528 202.431C272.473 202.454 272.424 202.487 272.382 202.529C272.34 202.571 272.307 202.621 272.284 202.676C272.261 202.731 272.25 202.789 272.25 202.849V205.127H265.477V202.849C265.477 202.789 265.465 202.731 265.443 202.676C265.42 202.621 265.387 202.571 265.345 202.529C265.303 202.487 265.253 202.454 265.198 202.431C265.144 202.409 265.085 202.397 265.026 202.397H254.19C254.131 202.397 254.072 202.409 254.017 202.431C253.962 202.454 253.913 202.487 253.871 202.529C253.829 202.571 253.795 202.621 253.773 202.676C253.75 202.731 253.738 202.789 253.738 202.849V205.127H246.966V202.849C246.966 202.789 246.954 202.731 246.932 202.676C246.909 202.621 246.876 202.571 246.834 202.529C246.792 202.487 246.742 202.454 246.687 202.431C246.633 202.409 246.574 202.397 246.514 202.397H235.679C235.619 202.397 235.561 202.409 235.506 202.431C235.451 202.454 235.401 202.487 235.359 202.529C235.318 202.571 235.284 202.621 235.262 202.676C235.239 202.731 235.227 202.789 235.227 202.849V205.127H228.455V202.849C228.455 202.789 228.443 202.731 228.42 202.676C228.398 202.621 228.365 202.571 228.323 202.529C228.281 202.487 228.231 202.454 228.176 202.431C228.121 202.409 228.063 202.397 228.003 202.397H143.123C143.064 202.397 143.005 202.409 142.95 202.431C142.895 202.454 142.846 202.487 142.804 202.529C142.762 202.571 142.728 202.621 142.706 202.676C142.683 202.731 142.671 202.789 142.671 202.849V205.127H135.899V202.849C135.899 202.789 135.887 202.731 135.865 202.676C135.842 202.621 135.809 202.571 135.767 202.529C135.725 202.487 135.675 202.454 135.62 202.431C135.566 202.409 135.507 202.397 135.448 202.397H124.612C124.552 202.397 124.494 202.409 124.439 202.431C124.384 202.454 124.334 202.487 124.292 202.529C124.251 202.571 124.217 202.621 124.195 202.676C124.172 202.731 124.16 202.789 124.16 202.849V205.127H117.388V202.849C117.388 202.789 117.376 202.731 117.353 202.676C117.331 202.621 117.298 202.571 117.256 202.529C117.214 202.487 117.164 202.454 117.109 202.431C117.054 202.409 116.996 202.397 116.936 202.397H106.101C106.041 202.397 105.983 202.409 105.928 202.431C105.873 202.454 105.823 202.487 105.781 202.529C105.739 202.571 105.706 202.621 105.683 202.676C105.661 202.731 105.649 202.789 105.649 202.849V205.127H98.8767V202.849C98.8767 202.789 98.865 202.731 98.8423 202.676C98.8196 202.621 98.7864 202.571 98.7445 202.529C98.7025 202.487 98.6528 202.454 98.598 202.431C98.5432 202.409 98.4845 202.397 98.4252 202.397H87.5894C87.5301 202.397 87.4714 202.409 87.4166 202.431C87.3618 202.454 87.3121 202.487 87.2701 202.529C87.2282 202.571 87.195 202.621 87.1723 202.676C87.1496 202.731 87.1379 202.789 87.1379 202.849V205.127H80.3655V202.849C80.3656 202.789 80.3539 202.731 80.3312 202.676C80.3085 202.621 80.2752 202.571 80.2333 202.529C80.1914 202.487 80.1416 202.454 80.0868 202.431C80.0321 202.409 79.9734 202.397 79.9141 202.397H69.0782C69.0189 202.397 68.9602 202.409 68.9055 202.431C68.8507 202.454 68.8009 202.487 68.759 202.529C68.717 202.571 68.6838 202.621 68.6611 202.676C68.6384 202.731 68.6267 202.789 68.6267 202.849V205.127H61.8544V202.849C61.8544 202.789 61.8427 202.731 61.82 202.676C61.7973 202.621 61.7641 202.571 61.7221 202.529C61.6802 202.487 61.6304 202.454 61.5757 202.431C61.5209 202.409 61.4622 202.397 61.4029 202.397H50.5671C50.5078 202.397 50.4491 202.409 50.3943 202.431C50.3395 202.454 50.2897 202.487 50.2478 202.529C50.2059 202.571 50.1726 202.621 50.1499 202.676C50.1273 202.731 50.1156 202.789 50.1156 202.849V205.127H43.3432V202.849C43.3432 202.789 43.3315 202.731 43.3088 202.676C43.2862 202.621 43.2529 202.571 43.211 202.529C43.169 202.487 43.1193 202.454 43.0645 202.431C43.0097 202.409 42.951 202.397 42.8917 202.397H32.0559C31.9966 202.397 31.9379 202.409 31.8831 202.431C31.8284 202.454 31.7786 202.487 31.7367 202.529C31.6947 202.571 31.6615 202.621 31.6388 202.676C31.6161 202.731 31.6044 202.789 31.6044 202.849V205.127H10.8358C7.96197 205.127 5.20584 206.269 3.17374 208.302C1.14163 210.335 2.7379e-06 213.092 0 215.967V220.869C8.21371e-06 223.744 1.14164 226.502 3.17374 228.535C5.20585 230.568 7.96198 231.71 10.8358 231.71H371.126C374 231.71 376.756 230.568 378.788 228.535C380.82 226.502 381.962 223.744 381.962 220.869V215.967C381.962 213.092 380.82 210.335 378.788 208.302C376.756 206.269 374 205.127 371.126 205.127Z" fill="#3F3D56"/>
<path d="M84.2233 183.083C76.4647 183.083 68.8802 180.781 62.4291 176.469C55.978 172.156 50.95 166.027 47.9809 158.856C45.0118 151.684 44.2349 143.793 45.7486 136.181C47.2622 128.568 50.9984 121.575 56.4846 116.086C61.9708 110.598 68.9606 106.86 76.5702 105.345C84.1798 103.831 92.0674 104.608 99.2355 107.579C106.404 110.549 112.53 115.579 116.841 122.033C121.151 128.487 123.452 136.075 123.452 143.837C123.44 154.242 119.303 164.217 111.949 171.575C104.595 178.932 94.6238 183.071 84.2233 183.083ZM84.2233 105.624C76.6688 105.624 69.284 107.865 63.0027 112.064C56.7213 116.263 51.8256 122.231 48.9347 129.214C46.0437 136.196 45.2873 143.879 46.7611 151.292C48.2349 158.705 51.8727 165.513 57.2146 170.858C62.5564 176.202 69.3623 179.841 76.7716 181.316C84.181 182.79 91.861 182.033 98.8404 179.141C105.82 176.249 111.785 171.351 115.982 165.067C120.179 158.783 122.42 151.395 122.42 143.837C122.408 133.706 118.38 123.993 111.219 116.829C104.059 109.665 94.3501 105.636 84.2233 105.624Z" fill="#3F3D56"/>
<path d="M434.183 16.8049H302.561V17.8377H434.183V16.8049Z" fill="#3F3D56"/>
<path d="M588 289.459H209.651V290.492H588V289.459Z" fill="#3F3D56"/>
<path d="M231.072 336.967H99.4503V338H231.072V336.967Z" fill="#3F3D56"/>
<path d="M257.566 284.015H243.114V298.474H257.566V284.015Z" fill="#FAB431"/>
<path d="M266.341 290.212H248.791V272.654H266.341V290.212ZM249.555 289.448H265.578V273.418H249.555V289.448Z" fill="#3F3D56"/>
<path d="M425.32 11.3606H410.867V25.8195H425.32V11.3606Z" fill="#FAB431"/>
<path d="M434.095 17.5573H416.545V0H434.095V17.5573ZM417.308 16.7939H433.332V0.763362H417.308V16.7939Z" fill="#3F3D56"/>
<path d="M570.878 284.015H556.426V298.474H570.878V284.015Z" fill="#FAB431"/>
<path d="M579.653 290.212H562.104V272.654H579.653V290.212ZM562.867 289.448H578.89V273.418H562.867V289.448Z" fill="#3F3D56"/>
<path d="M545.675 119.781H544.447V86.1323C544.447 83.5748 543.943 81.0423 542.965 78.6795C541.987 76.3166 540.553 74.1697 538.745 72.3613C536.938 70.5529 534.792 69.1184 532.43 68.1397C530.068 67.161 527.537 66.6572 524.98 66.6572H453.722C451.166 66.6572 448.634 67.1609 446.273 68.1397C443.911 69.1184 441.765 70.5529 439.957 72.3613C438.149 74.1697 436.716 76.3166 435.737 78.6795C434.759 81.0423 434.255 83.5748 434.255 86.1323V270.732C434.255 273.29 434.759 275.822 435.737 278.185C436.716 280.548 438.149 282.695 439.957 284.503C441.765 286.312 443.911 287.746 446.273 288.725C448.634 289.704 451.166 290.207 453.722 290.207H524.98C527.537 290.207 530.068 289.704 532.43 288.725C534.792 287.746 536.938 286.312 538.745 284.503C540.553 282.695 541.987 280.548 542.965 278.185C543.943 275.822 544.447 273.29 544.447 270.732V143.733H545.675V119.781Z" fill="#3F3D56"/>
<path d="M540.302 87.2769V271.608C540.302 275.465 538.771 279.165 536.045 281.893C533.319 284.621 529.622 286.154 525.766 286.154H454.164C450.308 286.154 446.611 284.621 443.885 281.893C441.159 279.165 439.628 275.465 439.629 271.608V87.2769C439.629 83.4204 441.161 79.7219 443.886 76.9949C446.612 74.2679 450.309 72.7358 454.164 72.7354H462.851C462.423 73.7845 462.26 74.9226 462.376 76.0497C462.492 77.1767 462.883 78.2579 463.515 79.1981C464.146 80.1384 465 80.9087 465.999 81.4413C466.999 81.974 468.114 82.2525 469.246 82.2524H510.07C511.202 82.2525 512.317 81.974 513.317 81.4413C514.316 80.9087 515.17 80.1384 515.801 79.1981C516.433 78.2579 516.824 77.1767 516.94 76.0497C517.056 74.9226 516.893 73.7845 516.465 72.7354H525.766C529.621 72.7358 533.318 74.2679 536.044 76.9949C538.77 79.7219 540.301 83.4204 540.302 87.2769Z" fill="#FAB431"/>
<path d="M500.63 194.275H479.3V200.599H500.63V194.275Z" fill="#3F3D56"/>
<path d="M526.417 145.041H453.513V147.751H526.417V145.041Z" fill="#3F3D56"/>
<path d="M526.417 153.623H453.513V156.333H526.417V153.623Z" fill="#3F3D56"/>
<path d="M526.417 162.205H453.513V164.915H526.417V162.205Z" fill="#3F3D56"/>
<path d="M526.417 170.787H453.513V173.497H526.417V170.787Z" fill="#3F3D56"/>
<path d="M526.417 179.37H453.513V182.08H526.417V179.37Z" fill="#3F3D56"/>
<path d="M492.512 109.051H479.87V121.698H492.512V109.051Z" fill="#F2F2F2"/>
<path d="M484.709 112.213V127.571H500.06V112.213H484.709ZM499.394 126.905H485.375V112.88H499.394V126.905Z" fill="#3F3D56"/>
<path opacity="0.1" d="M540.302 251.923V271.608C540.302 275.465 538.771 279.165 536.045 281.893C533.319 284.621 529.622 286.154 525.766 286.154H454.164C450.308 286.154 446.611 284.621 443.885 281.893C441.159 279.165 439.628 275.465 439.629 271.608V172.352L499.953 220.031L500.985 220.847L512.207 229.713L513.254 230.544L540.302 251.923Z" fill="black"/>
<path d="M483.771 280.18C496.277 280.18 506.414 270.038 506.414 257.527C506.414 245.017 496.277 234.875 483.771 234.875C471.266 234.875 461.128 245.017 461.128 257.527C461.128 270.038 471.266 280.18 483.771 280.18Z" fill="#F2F2F2"/>
<path d="M165.261 338C156.38 338 147.697 335.365 140.313 330.429C132.928 325.492 127.172 318.476 123.773 310.266C120.374 302.057 119.485 293.024 121.218 284.309C122.95 275.595 127.227 267.59 133.508 261.306C139.788 255.023 147.789 250.745 156.5 249.011C165.211 247.278 174.241 248.167 182.446 251.568C190.652 254.968 197.665 260.726 202.599 268.114C207.534 275.502 210.168 284.188 210.168 293.074C210.154 304.985 205.419 316.404 197 324.827C188.581 333.249 177.167 337.986 165.261 338ZM165.261 249.181C156.584 249.181 148.101 251.755 140.886 256.578C133.671 261.401 128.048 268.256 124.727 276.277C121.406 284.297 120.537 293.123 122.23 301.637C123.923 310.152 128.102 317.973 134.238 324.111C140.373 330.25 148.191 334.43 156.702 336.124C165.213 337.817 174.034 336.948 182.051 333.626C190.068 330.304 196.92 324.678 201.741 317.46C206.562 310.242 209.135 301.755 209.135 293.074C209.122 281.437 204.495 270.28 196.27 262.051C188.045 253.823 176.893 249.194 165.261 249.181Z" fill="#3F3D56"/>
<path d="M490.445 275C484.83 275 479.342 273.334 474.673 270.214C470.004 267.093 466.366 262.657 464.217 257.468C462.068 252.278 461.506 246.567 462.602 241.058C463.697 235.549 466.401 230.488 470.371 226.516C474.341 222.544 479.4 219.839 484.907 218.743C490.414 217.647 496.122 218.21 501.309 220.359C506.497 222.509 510.93 226.149 514.05 230.82C517.169 235.49 518.834 240.981 518.834 246.599C518.826 254.129 515.832 261.348 510.51 266.672C505.188 271.997 497.972 274.992 490.445 275ZM490.445 219.23C485.034 219.23 479.745 220.835 475.246 223.843C470.748 226.85 467.241 231.124 465.171 236.125C463.1 241.126 462.558 246.629 463.614 251.938C464.67 257.247 467.275 262.124 471.101 265.951C474.927 269.779 479.801 272.386 485.108 273.442C490.415 274.498 495.915 273.956 500.914 271.884C505.913 269.813 510.185 266.305 513.191 261.804C516.197 257.303 517.802 252.012 517.802 246.599C517.794 239.343 514.909 232.386 509.78 227.255C504.652 222.124 497.698 219.238 490.445 219.23Z" fill="#3F3D56"/>
</g>
<defs>
<clipPath id="clip0">
<rect width="588" height="338" fill="white"/>
</clipPath>
</defs>
</svg>
