<svg width="574" height="459" viewBox="0 0 574 459" fill="none" xmlns="http://www.w3.org/2000/svg">
<g clip-path="url(#clip0)">
<path d="M287.605 390.551C248.713 390.551 211.024 377.079 180.961 352.431C150.897 327.784 130.318 293.484 122.731 255.378C115.144 217.272 121.017 177.717 139.351 143.452C157.684 109.187 187.343 82.3328 223.275 67.4646C259.206 52.5964 299.186 50.6344 336.403 61.9127C373.621 73.1911 405.772 97.012 427.379 129.317C448.986 161.622 458.712 200.411 454.9 239.077C451.088 277.742 433.973 313.891 406.473 341.364C390.899 357.007 372.374 369.409 351.971 377.852C331.567 386.295 309.689 390.611 287.605 390.551ZM287.605 55.972C195.625 55.972 120.793 130.728 120.793 222.616C120.793 314.504 195.625 389.26 287.605 389.26C379.585 389.26 454.417 314.504 454.417 222.616C454.417 130.728 379.585 55.972 287.605 55.972Z" fill="#CCCCCC"/>
<path d="M350.024 415.735V246.55H223.976V415.735H350.024Z" fill="#2F2E41"/>
<path d="M371.678 241.384H202.322V308.542H371.678V241.384Z" fill="#3F3D56"/>
<path d="M371.678 316.291H202.322V383.448H371.678V316.291Z" fill="#3F3D56"/>
<path d="M371.678 391.197H202.322V458.354H371.678V391.197Z" fill="#3F3D56"/>
<path d="M371.678 269.859H202.322V280.191H371.678V269.859Z" fill="#FAB431"/>
<path d="M371.678 344.766H202.322V355.098H371.678V344.766Z" fill="#FAB431"/>
<path d="M371.678 419.672H202.322V430.004H371.678V419.672Z" fill="#FAB431"/>
<path d="M338.712 254.945C340.854 254.945 342.59 253.21 342.59 251.071C342.59 248.931 340.854 247.196 338.712 247.196C336.57 247.196 334.833 248.931 334.833 251.071C334.833 253.21 336.57 254.945 338.712 254.945Z" fill="#FAB431"/>
<path d="M352.286 254.945C354.428 254.945 356.164 253.21 356.164 251.071C356.164 248.931 354.428 247.196 352.286 247.196C350.144 247.196 348.408 248.931 348.408 251.071C348.408 253.21 350.144 254.945 352.286 254.945Z" fill="#FAB431"/>
<path d="M365.86 254.945C368.002 254.945 369.739 253.21 369.739 251.071C369.739 248.931 368.002 247.196 365.86 247.196C363.718 247.196 361.982 248.931 361.982 251.071C361.982 253.21 363.718 254.945 365.86 254.945Z" fill="#FAB431"/>
<path d="M338.712 328.56C340.854 328.56 342.59 326.825 342.59 324.685C342.59 322.545 340.854 320.811 338.712 320.811C336.57 320.811 334.833 322.545 334.833 324.685C334.833 326.825 336.57 328.56 338.712 328.56Z" fill="#FAB431"/>
<path d="M352.286 328.56C354.428 328.56 356.164 326.825 356.164 324.685C356.164 322.545 354.428 320.811 352.286 320.811C350.144 320.811 348.408 322.545 348.408 324.685C348.408 326.825 350.144 328.56 352.286 328.56Z" fill="#FAB431"/>
<path d="M365.86 328.56C368.002 328.56 369.739 326.825 369.739 324.685C369.739 322.545 368.002 320.811 365.86 320.811C363.718 320.811 361.982 322.545 361.982 324.685C361.982 326.825 363.718 328.56 365.86 328.56Z" fill="#FAB431"/>
<path d="M338.712 402.175C340.854 402.175 342.59 400.44 342.59 398.3C342.59 396.16 340.854 394.426 338.712 394.426C336.57 394.426 334.833 396.16 334.833 398.3C334.833 400.44 336.57 402.175 338.712 402.175Z" fill="#FAB431"/>
<path d="M352.286 402.175C354.428 402.175 356.164 400.44 356.164 398.3C356.164 396.16 354.428 394.426 352.286 394.426C350.144 394.426 348.408 396.16 348.408 398.3C348.408 400.44 350.144 402.175 352.286 402.175Z" fill="#FAB431"/>
<path d="M365.86 402.175C368.002 402.175 369.739 400.44 369.739 398.3C369.739 396.16 368.002 394.426 365.86 394.426C363.718 394.426 361.982 396.16 361.982 398.3C361.982 400.44 363.718 402.175 365.86 402.175Z" fill="#FAB431"/>
<path d="M574 457.708H0V459H574V457.708Z" fill="#3F3D56"/>
<path d="M156.349 175.039V295.142C156.349 297.655 155.35 300.064 153.571 301.841C151.793 303.618 149.381 304.616 146.865 304.617H100.145C97.6291 304.617 95.2162 303.619 93.4369 301.842C91.6575 300.065 90.6576 297.655 90.6568 295.142V175.039C90.6576 172.525 91.6575 170.115 93.4369 168.339C95.2162 166.562 97.6291 165.564 100.145 165.564H105.812C105.534 166.248 105.428 166.989 105.504 167.724C105.58 168.458 105.835 169.162 106.247 169.775C106.659 170.387 107.215 170.889 107.867 171.237C108.519 171.584 109.246 171.766 109.985 171.767H136.622C137.361 171.766 138.088 171.584 138.74 171.237C139.392 170.889 139.948 170.387 140.36 169.775C140.772 169.162 141.027 168.458 141.103 167.724C141.179 166.989 141.073 166.248 140.794 165.564H146.865C149.381 165.565 151.793 166.563 153.571 168.34C155.35 170.117 156.349 172.526 156.349 175.039Z" fill="#E6E6E6"/>
<path d="M153.237 188.499H93.7689V271.155H153.237V188.499Z" fill="white"/>
<path d="M134.389 245.336H110.654V246.691H134.389V245.336Z" fill="#E6E6E6"/>
<path d="M147.356 250.311H110.63V251.666H147.356V250.311Z" fill="#FAB431"/>
<path d="M139.452 254.998H110.63V256.353H139.452V254.998Z" fill="#E6E6E6"/>
<path d="M127.584 259.686H110.63V261.041H127.584V259.686Z" fill="#E6E6E6"/>
<path d="M136.061 264.373H110.63V265.728H136.061V264.373Z" fill="#E6E6E6"/>
<path d="M102.602 244.946H99.8897V247.656H102.602V244.946Z" fill="#E6E6E6"/>
<path d="M102.602 249.634H99.8897V252.343H102.602V249.634Z" fill="#FAB431"/>
<path d="M102.602 254.321H99.8897V257.031H102.602V254.321Z" fill="#E6E6E6"/>
<path d="M102.602 259.008H99.8897V261.718H102.602V259.008Z" fill="#E6E6E6"/>
<path d="M102.602 263.695H99.8897V266.405H102.602V263.695Z" fill="#E6E6E6"/>
<path d="M135.581 198.831H111.666V222.722H135.581V198.831Z" fill="#E6E6E6"/>
<path d="M366.503 0.0900879H207.565V101.779H366.503V0.0900879Z" fill="#E6E6E6"/>
<path d="M351.322 28.5388H219.546V78.2839H351.322V28.5388Z" fill="white"/>
<path d="M275.181 37.1575H243.555V38.9629H275.181V37.1575Z" fill="#E6E6E6"/>
<path d="M292.459 43.7861H243.524V45.5915H292.459V43.7861Z" fill="#FAB431"/>
<path d="M281.927 50.0317H243.524V51.8371H281.927V50.0317Z" fill="#E6E6E6"/>
<path d="M266.114 56.2771H243.524V58.0825H266.114V56.2771Z" fill="#E6E6E6"/>
<path d="M277.409 62.5225H243.524V64.3278H277.409V62.5225Z" fill="#E6E6E6"/>
<path d="M232.827 36.6382H229.213V40.249H232.827V36.6382Z" fill="#E6E6E6"/>
<path d="M232.827 42.8835H229.213V46.4943H232.827V42.8835Z" fill="#FAB431"/>
<path d="M232.827 49.1289H229.213V52.7397H232.827V49.1289Z" fill="#E6E6E6"/>
<path d="M232.827 55.3743H229.213V58.985H232.827V55.3743Z" fill="#E6E6E6"/>
<path d="M232.827 61.6196H229.213V65.2304H232.827V61.6196Z" fill="#E6E6E6"/>
<path d="M344.855 34.7717H312.497V67.0969H344.855V34.7717Z" fill="#E6E6E6"/>
<path d="M366.435 0H207.497V6.74548H366.435V0Z" fill="#FAB431"/>
<path d="M212.515 4.8028C213.263 4.8028 213.87 4.19658 213.87 3.44876C213.87 2.70095 213.263 2.09473 212.515 2.09473C211.766 2.09473 211.159 2.70095 211.159 3.44876C211.159 4.19658 211.766 4.8028 212.515 4.8028Z" fill="white"/>
<path d="M217.265 4.8028C218.014 4.8028 218.62 4.19658 218.62 3.44876C218.62 2.70095 218.014 2.09473 217.265 2.09473C216.516 2.09473 215.91 2.70095 215.91 3.44876C215.91 4.19658 216.516 4.8028 217.265 4.8028Z" fill="white"/>
<path d="M222.015 4.8028C222.764 4.8028 223.371 4.19658 223.371 3.44876C223.371 2.70095 222.764 2.09473 222.015 2.09473C221.267 2.09473 220.66 2.70095 220.66 3.44876C220.66 4.19658 221.267 4.8028 222.015 4.8028Z" fill="white"/>
<path d="M472.934 190.37H434.151V210.388H472.934V190.37Z" fill="#E6E6E6"/>
<path d="M472.934 262.048H434.151V282.066H472.934V262.048Z" fill="#E6E6E6"/>
<path d="M453.543 268.506C471.392 268.506 485.862 254.05 485.862 236.218C485.862 218.387 471.392 203.931 453.543 203.931C435.693 203.931 421.223 218.387 421.223 236.218C421.223 254.05 435.693 268.506 453.543 268.506Z" fill="#E6E6E6"/>
<path d="M453.543 261.402C467.465 261.402 478.752 250.127 478.752 236.218C478.752 222.309 467.465 211.034 453.543 211.034C439.62 211.034 428.333 222.309 428.333 236.218C428.333 250.127 439.62 261.402 453.543 261.402Z" fill="white"/>
<path d="M464.839 229.318H445.287V230.434H464.839V229.318Z" fill="#E2E2E2"/>
<path d="M475.52 233.416H445.268V234.532H475.52V233.416Z" fill="#FAB431"/>
<path d="M469.009 237.277H445.268V238.393H469.009V237.277Z" fill="#E2E2E2"/>
<path d="M459.233 241.138H445.268V242.254H459.233V241.138Z" fill="#E2E2E2"/>
<path d="M466.216 244.999H445.268V246.115H466.216V244.999Z" fill="#E2E2E2"/>
<path d="M438.655 228.997H436.421V231.229H438.655V228.997Z" fill="#E2E2E2"/>
<path d="M438.655 232.858H436.421V235.09H438.655V232.858Z" fill="#FAB431"/>
<path d="M438.655 236.719H436.421V238.951H438.655V236.719Z" fill="#E2E2E2"/>
<path d="M438.655 240.58H436.421V242.812H438.655V240.58Z" fill="#E2E2E2"/>
<path d="M438.655 244.441H436.421V246.673H438.655V244.441Z" fill="#E2E2E2"/>
</g>
<defs>
<clipPath id="clip0">
<rect width="574" height="459" fill="white"/>
</clipPath>
</defs>
</svg>
